<svg width="64" height="64" viewBox="0 0 64 64" fill="none" xmlns="http://www.w3.org/2000/svg">
    <rect width="64" height="64" rx="6" fill="#343A40" />
    <g filter="url(#filter0_d_31_8)">
        <path
            d="M27.728 56.808L26 54.6C27.92 53 29.36 51.304 30.32 49.512C31.344 47.784 31.856 46.12 31.856 44.52C31.856 43.624 31.696 43.048 31.376 42.792C31.056 42.472 30.608 42.152 30.032 41.832C29.392 41.448 28.784 40.904 28.208 40.2C27.632 39.432 27.344 38.44 27.344 37.224C27.344 35.88 27.792 34.728 28.688 33.768C29.584 32.808 30.768 32.328 32.24 32.328C33.84 32.328 35.248 33 36.464 34.344C37.68 35.688 38.288 37.672 38.288 40.296C38.288 42.6 37.808 44.776 36.848 46.824C35.952 48.936 34.704 50.824 33.104 52.488C31.504 54.216 29.712 55.656 27.728 56.808Z"
            fill="#D9D9D9" />
        <path
            d="M37.424 13.992C37.424 15.464 36.944 16.68 35.984 17.64C35.024 18.536 33.776 18.984 32.24 18.984C30.704 18.984 29.456 18.536 28.496 17.64C27.6 16.68 27.152 15.464 27.152 13.992C27.152 12.456 27.6 11.24 28.496 10.344C29.456 9.44799 30.704 8.99999 32.24 8.99999C33.776 8.99999 35.024 9.44799 35.984 10.344C36.944 11.24 37.424 12.456 37.424 13.992Z"
            fill="#D9D9D9" />
    </g>
    <defs>
        <filter id="filter0_d_31_8" x="26" y="9" width="14.288" height="49.808" filterUnits="userSpaceOnUse"
            color-interpolation-filters="sRGB">
            <feFlood flood-opacity="0" result="BackgroundImageFix" />
            <feColorMatrix in="SourceAlpha" type="matrix" values="0 0 0 0 0 0 0 0 0 0 0 0 0 0 0 0 0 0 127 0"
                result="hardAlpha" />
            <feOffset dx="2" dy="2" />
            <feComposite in2="hardAlpha" operator="out" />
            <feColorMatrix type="matrix" values="0 0 0 0 0 0 0 0 0 0 0 0 0 0 0 0 0 0 0.25 0" />
            <feBlend mode="normal" in2="BackgroundImageFix" result="effect1_dropShadow_31_8" />
            <feBlend mode="normal" in="SourceGraphic" in2="effect1_dropShadow_31_8" result="shape" />
        </filter>
    </defs>
</svg>