<svg width="16" height="16" viewBox="0 0 16 16" fill="none" xmlns="http://www.w3.org/2000/svg">
    <rect width="16" height="16" rx="2" fill="#696969" />
    <g filter="url(#filter0_d_9_2)">
        <rect x="12" y="2" width="2" height="2" rx="1" fill="white" />
        <rect x="5" y="5" width="2" height="2" rx="1" fill="white" />
        <rect width="9" height="2" rx="1" transform="matrix(1 0 0 -1 2 4)" fill="#D45FF6" />
        <rect x="8" y="5" width="4" height="2" rx="1" fill="#3DB2FF" />
        <path
            d="M2 13C2 12.4477 2.44772 12 3 12H7C7.55228 12 8 12.4477 8 13V13C8 13.5523 7.55228 14 7 14H3C2.44772 14 2 13.5523 2 13V13Z"
            fill="#EC994B" />
        <rect width="6" height="2" rx="1" transform="matrix(1 0 0 -1 5 11)" fill="#95D567" />
    </g>
    <defs>
        <filter id="filter0_d_9_2" x="2" y="2" width="13" height="13" filterUnits="userSpaceOnUse"
            color-interpolation-filters="sRGB">
            <feFlood flood-opacity="0" result="BackgroundImageFix" />
            <feColorMatrix in="SourceAlpha" type="matrix" values="0 0 0 0 0 0 0 0 0 0 0 0 0 0 0 0 0 0 127 0"
                result="hardAlpha" />
            <feOffset dx="1" dy="1" />
            <feComposite in2="hardAlpha" operator="out" />
            <feColorMatrix type="matrix" values="0 0 0 0 0 0 0 0 0 0 0 0 0 0 0 0 0 0 0.25 0" />
            <feBlend mode="normal" in2="BackgroundImageFix" result="effect1_dropShadow_9_2" />
            <feBlend mode="normal" in="SourceGraphic" in2="effect1_dropShadow_9_2" result="shape" />
        </filter>
    </defs>
</svg>